# xmcd
#
# Track frame offsets:
#	150
#	14627
#	26081
#	35872
#	48835
#	58814
#	70082
#	82913
#	94377
#	104031
#	116449
#	127039
#	140319
#	152259
#	165372
#	178697
#	190743
#	202691
#	211604
#	224049
#	236506
#	249849
#	263505
#	276138
#	285198
#	294949
#	311399
#
# Disc length: 4317 seconds
# Revision: 0
# Processed by: cddbd v1.5.2PL0 Copyright (c) Steve Scherf et al.
# Submitted via: dBpowerAMP V12.0
#
DISCID=7510db1b
DTITLE=Luke Simmons - 
DYEAR=1900
DGENRE=Country
TTITLE0=Night Train To Memphis
TTITLE1=My Shoes Keep Walking Back To You
TTITLE2=The Wabash Cannonball
TTITLE3=Hey Baby I Love You
TTITLE4=Waitin At The Gate For Katie
TTITLE5=Down Where The Meadowlarks Sing
TTITLE6=Ridin Over The Range
TTITLE7=When The Harvest Moon Is Shining
TTITLE8=Dont Play That Song
TTITLE9=Waitin On A Sidin
TTITLE10=Im A Ladies Man
TTITLE11=Anniversary Of Our Last Goodbye
TTITLE12=Open Up Your Heart
TTITLE13=Its A Long Way Back Into Your Heart
TTITLE14=Days That Used To Be
TTITLE15=Cup Of Joy
TTITLE16=Deep Sea Jamboree
TTITLE17=Im Tired Of Living This Way
TTITLE18=Your Cheatin Heart
TTITLE19=Too Blind To See
TTITLE20=That Heart Belongs To Me
TTITLE21=Take These Chains From My Heart
TTITLE22=Rainy Day Blues
TTITLE23=Hobo Joe
TTITLE24=Ive Got A Sugar Pie Baby
TTITLE25=Little Buddy
TTITLE26=Drifting On The Sea Of Life
EXTD=
EXTT0=
EXTT1=
EXTT2=
EXTT3=
EXTT4=
EXTT5=
EXTT6=
EXTT7=
EXTT8=
EXTT9=
EXTT10=
EXTT11=
EXTT12=
EXTT13=
EXTT14=
EXTT15=
EXTT16=
EXTT17=
EXTT18=
EXTT19=
EXTT20=
EXTT21=
EXTT22=
EXTT23=
EXTT24=
EXTT25=
EXTT26=
PLAYORDER=
